<?xml version="1.0" encoding="UTF-8" standalone="no"?>
<!-- Generator: Adobe Illustrator 16.0.0, SVG Export Plug-In . SVG Version: 6.00 Build 0)  -->

<svg
   xmlns:dc="http://purl.org/dc/elements/1.1/"
   xmlns:cc="http://creativecommons.org/ns#"
   xmlns:rdf="http://www.w3.org/1999/02/22-rdf-syntax-ns#"
   xmlns:svg="http://www.w3.org/2000/svg"
   xmlns="http://www.w3.org/2000/svg"
   xmlns:sodipodi="http://sodipodi.sourceforge.net/DTD/sodipodi-0.dtd"
   xmlns:inkscape="http://www.inkscape.org/namespaces/inkscape"
   version="1.1"
   id="Ebene_1"
   x="0px"
   y="0px"
   width="140"
   height="60"
   viewBox="-16.014 -31 140 60"
   enable-background="new -16.014 -31 149 114"
   xml:space="preserve"
   sodipodi:docname="logo1.svg"
   inkscape:version="0.92.3 (2405546, 2018-03-11)"
   inkscape:export-xdpi="96"
   inkscape:export-ydpi="96"><metadata
   id="metadata839"><rdf:RDF><cc:Work
       rdf:about=""><dc:format>image/svg+xml</dc:format><dc:type
         rdf:resource="http://purl.org/dc/dcmitype/StillImage" /><dc:title>TUM_Web_Logo_blau</dc:title></cc:Work></rdf:RDF></metadata><defs
   id="defs837" /><sodipodi:namedview
   pagecolor="#ffffff"
   bordercolor="#666666"
   borderopacity="1"
   objecttolerance="10"
   gridtolerance="10"
   guidetolerance="10"
   inkscape:pageopacity="0"
   inkscape:pageshadow="2"
   inkscape:window-width="3240"
   inkscape:window-height="2035"
   id="namedview835"
   showgrid="false"
   inkscape:zoom="3.7894737"
   inkscape:cx="194.99549"
   inkscape:cy="-95.555711"
   inkscape:window-x="-13"
   inkscape:window-y="-13"
   inkscape:window-maximized="1"
   inkscape:current-layer="Ebene_1"
   scale-x="1"
   viewbox-height="70" />
<title
   id="title828">TUM_Web_Logo_blau</title>
<desc
   id="desc830">TUM</desc>
<path
   d="m 16.309708,-27.967043 v 24.5624356 h 6.338693 V -27.967043 H 51.964856 V 2.1417492 H 46.4185 V -22.420687 H 40.079807 V 2.1417492 H 34.53345 V -22.420687 H 28.194757 V 2.1417492 H 10.763352 V -22.420687 H 5.2169954 V 2.1417492 H -0.3293603 V -22.420687 h -5.546357 v -5.546356 z"
   id="path832"
   inkscape:connector-curvature="0"
   style="fill:#b20233;fill-opacity:1;stroke-width:0.79233664" />
<g
   transform="matrix(5.7810553,0,0,3.55256,-7.5818063,-57.288367)"
   id="g104618"><g
     transform="matrix(1.25,0,0,-1.25,10.7925,23.08375)"
     id="g79661"
     style="fill:#a8c02a;fill-opacity:1"><path
       inkscape:connector-curvature="0"
       id="path79663"
       style="fill:#a8c02a;fill-opacity:1;fill-rule:nonzero;stroke:none"
       d="M 0,0 -8.434,0.656 V 3.481 L 0,4.028 Z" /></g><g
     transform="matrix(1.25,0,0,-1.25,10.7925,18.04875)"
     id="g79665"
     style="fill:#b20233;fill-opacity:1"><path
       inkscape:connector-curvature="0"
       id="path79667"
       style="fill:#b20233;fill-opacity:1;fill-rule:nonzero;stroke:none"
       d="M 0,0 8.432,-0.658 V -3.485 L 0,-4.028 Z" /></g></g><g
   id="g1161"
   style="fill:#a8c02a;fill-opacity:1"
   transform="matrix(0.79233663,0,0,0.79233663,-31.296031,-33.513399)"><g
     id="g79641"
     transform="matrix(7.2221695,0,0,-7.2221695,113.75761,36.975398)"
     style="fill:#a8c02a;fill-opacity:1"><path
       d="m 0,0 c -0.445,0.01 -0.76,0.445 -0.763,1.057 0,0.617 0.309,1.016 0.757,0.981 C 0.432,2.007 0.727,1.586 0.727,0.985 0.733,0.402 0.446,0 0.018,0 Z m -1.979,1.114 c 0.006,-1.337 0.839,-2.264 1.973,-2.264 1.085,0 1.836,0.876 1.828,2.083 C 1.81,2.162 1.084,3.09 0,3.19 -0.062,3.2 -0.122,3.2 -0.181,3.2 -1.22,3.2 -1.983,2.352 -1.979,1.114"
       style="fill:#a8c02a;fill-opacity:1;fill-rule:nonzero;stroke:none"
       id="path79643"
       inkscape:connector-curvature="0" /></g><g
     id="g79645"
     transform="matrix(7.2221695,0,0,-7.2221695,136.33053,45.114783)"
     style="fill:#a8c02a;fill-opacity:1"><path
       d="m 0,0 1.575,3.813 -1.021,0.096 -0.559,-1.631 -0.606,1.74 -1.15,0.11 z"
       style="fill:#a8c02a;fill-opacity:1;fill-rule:nonzero;stroke:none"
       id="path79647"
       inkscape:connector-curvature="0" /></g><g
     id="g79649"
     transform="matrix(7.2221695,0,0,-7.2221695,146.79327,44.898117)"
     style="fill:#a8c02a;fill-opacity:1"><path
       d="M 0,0 H 0.881 L 0.844,3.721 -0.027,3.799 Z"
       style="fill:#a8c02a;fill-opacity:1;fill-rule:nonzero;stroke:none"
       id="path79651"
       inkscape:connector-curvature="0" /></g><g
     id="g79653"
     transform="matrix(7.2221695,0,0,-7.2221695,155.34506,44.898117)"
     style="fill:#a8c02a;fill-opacity:1"><path
       d="M 0,0 1.8,-0.011 1.794,0.974 0.809,0.998 V 1.349 L 1.701,1.312 1.695,2.266 0.801,2.313 0.793,2.607 1.772,2.54 1.764,3.521 -0.033,3.685 Z"
       style="fill:#a8c02a;fill-opacity:1;fill-rule:nonzero;stroke:none"
       id="path79655"
       inkscape:connector-curvature="0" /></g><g
     id="g79657"
     transform="matrix(7.2221695,0,0,-7.2221695,169.64131,26.965471)"
     style="fill:#a8c02a;fill-opacity:1"><path
       d="m 0,0 c 0,-0.491 0.206,-0.852 0.62,-1.101 0.339,-0.203 0.339,-0.287 0.343,-0.349 0,-0.04 0,-0.129 -0.151,-0.124 C 0.629,-1.57 0.407,-1.462 0.23,-1.276 L 0.104,-1.154 -0.1,-2.127 -0.034,-2.184 c 0.24,-0.218 0.576,-0.363 0.839,-0.363 0.619,0 0.882,0.574 0.874,1.104 -0.005,0.48 -0.181,0.805 -0.602,1.081 -0.293,0.188 -0.337,0.227 -0.337,0.33 -0.001,0.075 0.086,0.098 0.167,0.098 0.125,-0.013 0.31,-0.139 0.43,-0.264 L 1.458,-0.317 1.625,0.596 1.563,0.659 C 1.428,0.802 1.162,0.956 0.894,0.986 0.863,0.992 0.836,0.992 0.805,0.992 0.274,0.992 -0.013,0.502 0,0"
       style="fill:#a8c02a;fill-opacity:1;fill-rule:nonzero;stroke:none"
       id="path79659"
       inkscape:connector-curvature="0" /></g></g><flowRoot
   xml:space="preserve"
   id="flowRoot1143"
   style="font-style:normal;font-weight:normal;font-size:13.33333302px;line-height:1.25;font-family:sans-serif;letter-spacing:0px;word-spacing:0px;fill:#eaeaea;fill-opacity:1;stroke:none"
   transform="matrix(0.79233663,0,0,0.79233663,-41.139276,-64.140484)"
   inkscape:export-xdpi="96"
   inkscape:export-ydpi="96"><flowRegion
     id="flowRegion1145"
     style="fill:#eaeaea;fill-opacity:1"><rect
       id="rect1147"
       width="157.27777"
       height="21.375008"
       x="47.763889"
       y="93.944443"
       style="fill:#eaeaea;fill-opacity:1" /></flowRegion><flowPara
     id="flowPara1149"
     style="font-style:normal;font-variant:normal;font-weight:bold;font-stretch:normal;font-family:sans-serif;-inkscape-font-specification:'sans-serif Bold';letter-spacing:1.9436183px;fill:#eaeaea;fill-opacity:1"><flowSpan
   style="letter-spacing:1.9436183px;fill:#000000;fill-opacity:1"
   id="flowSpan1203">DEEP LE</flowSpan>ARNING</flowPara></flowRoot></svg>